<svg width="210" height="48" viewBox="0 0 210 48" fill="none" xmlns="http://www.w3.org/2000/svg">
<g clip-path="url(#clip0_1_2)">
<path d="M67.862 37.54C65.966 37.54 64.376 37.09 63.092 36.19C61.808 35.29 60.842 34.066 60.194 32.518C59.546 30.958 59.222 29.212 59.222 27.28C59.222 25.324 59.546 23.572 60.194 22.024C60.842 20.476 61.79 19.258 63.038 18.37C64.298 17.47 65.852 17.02 67.7 17.02C69.536 17.02 71.126 17.47 72.47 18.37C73.826 19.258 74.876 20.476 75.62 22.024C76.364 23.56 76.736 25.312 76.736 27.28C76.736 29.224 76.37 30.97 75.638 32.518C74.906 34.066 73.874 35.29 72.542 36.19C71.21 37.09 69.65 37.54 67.862 37.54ZM58.484 37V11.08H62.858V23.356H62.318V37H58.484ZM67.196 33.652C68.324 33.652 69.254 33.37 69.986 32.806C70.718 32.242 71.258 31.48 71.606 30.52C71.966 29.548 72.146 28.468 72.146 27.28C72.146 26.104 71.966 25.036 71.606 24.076C71.246 23.104 70.688 22.336 69.932 21.772C69.176 21.196 68.216 20.908 67.052 20.908C65.948 20.908 65.048 21.178 64.352 21.718C63.656 22.246 63.14 22.99 62.804 23.95C62.48 24.898 62.318 26.008 62.318 27.28C62.318 28.54 62.48 29.65 62.804 30.61C63.14 31.57 63.662 32.32 64.37 32.86C65.09 33.388 66.032 33.652 67.196 33.652ZM89.2896 37.54C87.3456 37.54 85.6476 37.102 84.1956 36.226C82.7436 35.35 81.6156 34.144 80.8116 32.608C80.0196 31.06 79.6236 29.284 79.6236 27.28C79.6236 25.24 80.0316 23.452 80.8476 21.916C81.6636 20.38 82.7976 19.18 84.2496 18.316C85.7016 17.452 87.3816 17.02 89.2896 17.02C91.2456 17.02 92.9496 17.458 94.4016 18.334C95.8536 19.21 96.9816 20.422 97.7856 21.97C98.5896 23.506 98.9916 25.276 98.9916 27.28C98.9916 29.296 98.5836 31.078 97.7676 32.626C96.9636 34.162 95.8356 35.368 94.3836 36.244C92.9316 37.108 91.2336 37.54 89.2896 37.54ZM89.2896 33.472C91.0176 33.472 92.3016 32.896 93.1416 31.744C93.9816 30.592 94.4016 29.104 94.4016 27.28C94.4016 25.396 93.9756 23.896 93.1236 22.78C92.2716 21.652 90.9936 21.088 89.2896 21.088C88.1256 21.088 87.1656 21.352 86.4096 21.88C85.6656 22.396 85.1136 23.122 84.7536 24.058C84.3936 24.982 84.2136 26.056 84.2136 27.28C84.2136 29.164 84.6396 30.67 85.4916 31.798C86.3556 32.914 87.6216 33.472 89.2896 33.472ZM111.544 37.54C109.6 37.54 107.902 37.102 106.45 36.226C104.998 35.35 103.87 34.144 103.066 32.608C102.274 31.06 101.878 29.284 101.878 27.28C101.878 25.24 102.286 23.452 103.102 21.916C103.918 20.38 105.052 19.18 106.504 18.316C107.956 17.452 109.636 17.02 111.544 17.02C113.5 17.02 115.204 17.458 116.656 18.334C118.108 19.21 119.236 20.422 120.04 21.97C120.844 23.506 121.246 25.276 121.246 27.28C121.246 29.296 120.838 31.078 120.022 32.626C119.218 34.162 118.09 35.368 116.638 36.244C115.186 37.108 113.488 37.54 111.544 37.54ZM111.544 33.472C113.272 33.472 114.556 32.896 115.396 31.744C116.236 30.592 116.656 29.104 116.656 27.28C116.656 25.396 116.23 23.896 115.378 22.78C114.526 21.652 113.248 21.088 111.544 21.088C110.38 21.088 109.42 21.352 108.664 21.88C107.92 22.396 107.368 23.122 107.008 24.058C106.648 24.982 106.468 26.056 106.468 27.28C106.468 29.164 106.894 30.67 107.746 31.798C108.61 32.914 109.876 33.472 111.544 33.472ZM125.175 37L125.211 11.08H129.603V26.92L136.713 17.56H142.131L134.589 27.28L142.779 37H137.037L129.603 27.64V37H125.175ZM155.023 20.962V17.56H159.883V20.962H155.023ZM146.275 37V17.254C146.275 16.762 146.293 16.222 146.329 15.634C146.365 15.034 146.467 14.44 146.635 13.852C146.803 13.264 147.109 12.73 147.553 12.25C148.105 11.638 148.699 11.218 149.335 10.99C149.983 10.75 150.619 10.618 151.243 10.594C151.867 10.558 152.413 10.54 152.881 10.54H155.311V14.068H153.061C152.233 14.068 151.615 14.278 151.207 14.698C150.811 15.106 150.613 15.646 150.613 16.318V37H146.275ZM143.143 20.962V17.56H155.311V20.962H143.143ZM159.667 37V10.54H164.005V37H159.667ZM169.763 14.608V10.63H174.101V14.608H169.763ZM169.763 37V17.56H174.101V37H169.763ZM177.333 37L184.443 27.172L177.477 17.56H182.589L186.963 23.77L191.265 17.56H196.377L189.411 27.172L196.557 37H191.445L186.963 30.574L182.445 37H177.333Z" fill="#3B3F3E"/>
<path d="M24 40C22.4 38.7333 20.6667 37.75 18.8 37.05C16.9333 36.35 15 36 13 36C11.6 36 10.225 36.1833 8.875 36.55C7.525 36.9167 6.23333 37.4333 5 38.1C4.3 38.4667 3.625 38.45 2.975 38.05C2.325 37.65 2 37.0667 2 36.3V12.2C2 11.8333 2.09167 11.4833 2.275 11.15C2.45833 10.8167 2.73333 10.5667 3.1 10.4C4.63333 9.6 6.23333 9 7.9 8.6C9.56667 8.2 11.2667 8 13 8C14.9333 8 16.825 8.25 18.675 8.75C20.525 9.25 22.3 10 24 11V35.2C25.7 34.1333 27.4833 33.3333 29.35 32.8C31.2167 32.2667 33.1 32 35 32C36.2 32 37.375 32.1 38.525 32.3C39.675 32.5 40.8333 32.8 42 33.2V9.2C42.5 9.36667 42.9917 9.54167 43.475 9.725C43.9583 9.90833 44.4333 10.1333 44.9 10.4C45.2667 10.5667 45.5417 10.8167 45.725 11.15C45.9083 11.4833 46 11.8333 46 12.2V36.3C46 37.0667 45.675 37.65 45.025 38.05C44.375 38.45 43.7 38.4667 43 38.1C41.7667 37.4333 40.475 36.9167 39.125 36.55C37.775 36.1833 36.4 36 35 36C33 36 31.0667 36.35 29.2 37.05C27.3333 37.75 25.6 38.7333 24 40ZM28 30V11L38 1V21L28 30ZM20 33.25V13.45C18.9 12.9833 17.7583 12.625 16.575 12.375C15.3917 12.125 14.2 12 13 12C11.7667 12 10.5667 12.1167 9.4 12.35C8.23333 12.5833 7.1 12.9333 6 13.4V33.25C7.16667 32.8167 8.325 32.5 9.475 32.3C10.625 32.1 11.8 32 13 32C14.2 32 15.375 32.1 16.525 32.3C17.675 32.5 18.8333 32.8167 20 33.25Z" fill="#00B47E"/>
</g>
<defs>
<clipPath id="clip0_1_2">
<rect width="210" height="48" fill="white"/>
</clipPath>
</defs>
</svg>
